<?xml version="1.0" encoding="UTF-8" standalone="no"?>
<!DOCTYPE svg PUBLIC "-//W3C//DTD SVG 1.1//EN" "http://www.w3.org/Graphics/SVG/1.1/DTD/svg11.dtd">
<svg width="100%" height="100%" viewBox="0 0 747 800" version="1.1" xmlns="http://www.w3.org/2000/svg" xmlns:xlink="http://www.w3.org/1999/xlink" xml:space="preserve" xmlns:serif="http://www.serif.com/" style="fill-rule:evenodd;clip-rule:evenodd;stroke-linejoin:round;stroke-miterlimit:1.41421;">
    <g transform="matrix(0.451719,0,0,2.3067,21.6147,-378.47)">
        <rect x="-47.85" y="285.72" width="84.916" height="95.641" style="fill:white;"/>
    </g>
    <g transform="matrix(2.16248,0,0,2.49006,441.318,-430.86)">
        <rect x="-47.85" y="285.72" width="84.916" height="95.641" style="fill:white;"/>
    </g>
    <g transform="matrix(2.16248,0,0,2.49006,385.16,-395.015)">
        <rect x="-47.85" y="285.72" width="84.916" height="95.641" style="fill:white;"/>
    </g>
    <g transform="matrix(0.842218,0,0,2.31801,415.352,-622.291)">
        <rect x="-47.85" y="285.72" width="84.916" height="95.641" style="fill:white;"/>
    </g>
    <g transform="matrix(2.17999,0,0,1.74883,479.364,-405.227)">
        <rect x="-47.85" y="285.72" width="84.916" height="95.641" style="fill:white;"/>
    </g>
    <g transform="matrix(2.17999,0,0,0.581597,516.234,-166.174)">
        <rect x="-47.85" y="285.72" width="84.916" height="95.641" style="fill:white;"/>
    </g>
    <g transform="matrix(2.17999,0,0,1.75997,402.457,-94.6164)">
        <rect x="-47.85" y="285.72" width="84.916" height="95.641" style="fill:white;"/>
    </g>
    <g transform="matrix(2.17999,0,0,1.75997,367.074,-56.171)">
        <rect x="-47.85" y="285.72" width="84.916" height="95.641" style="fill:white;"/>
    </g>
    <g transform="matrix(2.19885,0,0,0.346238,516.459,255.852)">
        <rect x="-47.85" y="285.72" width="84.916" height="95.641" style="fill:white;"/>
    </g>
    <g transform="matrix(0.4131,0,0,0.60011,582.166,198.973)">
        <rect x="-47.85" y="285.72" width="84.916" height="95.641" style="fill:white;"/>
    </g>
    <g transform="matrix(0.44663,0,0,1.84322,393.874,97.0698)">
        <rect x="-47.85" y="285.72" width="84.916" height="95.641" style="fill:white;"/>
    </g>
    <g transform="matrix(0.44663,0,0,0.592472,357.873,460.996)">
        <rect x="-47.85" y="285.72" width="84.916" height="95.641" style="fill:white;"/>
    </g>
    <g transform="matrix(0.680085,0,0,0.392626,422.578,650.268)">
        <rect x="-47.85" y="285.72" width="84.916" height="95.641" style="fill:white;"/>
    </g>
    <g transform="matrix(0.888426,0,0,0.397296,229.118,648.487)">
        <rect x="-47.85" y="285.72" width="84.916" height="95.641" style="fill:white;"/>
    </g>
    <g transform="matrix(0.440614,0,0,1.45768,207.707,216.258)">
        <rect x="-47.85" y="285.72" width="84.916" height="95.641" style="fill:white;"/>
    </g>
    <g transform="matrix(0.522946,0,0,1.45768,241.74,167.587)">
        <rect x="-47.85" y="285.72" width="84.916" height="95.641" style="fill:white;"/>
    </g>
    <g transform="matrix(0.522946,0,0,1.45768,278.664,130.145)">
        <rect x="-47.85" y="285.72" width="84.916" height="95.641" style="fill:white;"/>
    </g>
    <g transform="matrix(2.16248,0,0,2.49006,329.687,-357.01)">
        <rect x="-47.85" y="285.72" width="84.916" height="95.641" style="fill:white;"/>
    </g>
    <g transform="matrix(2.16248,0,0,2.49006,293.345,-320.553)">
        <rect x="-47.85" y="285.72" width="84.916" height="95.641" style="fill:white;"/>
    </g>
    <g transform="matrix(2.04874,0,0,0.762548,120.402,209.21)">
        <rect x="-47.85" y="285.72" width="84.916" height="95.641" style="fill:white;"/>
    </g>
    <g transform="matrix(2.04874,0,0,0.762548,137.493,246.474)">
        <rect x="-47.85" y="285.72" width="84.916" height="95.641" style="fill:white;"/>
    </g>
    <g transform="matrix(2.04874,0,0,0.762548,178.123,285.46)">
        <rect x="-47.85" y="285.72" width="84.916" height="95.641" style="fill:white;"/>
    </g>
    <g transform="matrix(0.917021,0,0,0.762548,43.8793,135.697)">
        <rect x="-47.85" y="285.72" width="84.916" height="95.641" style="fill:white;"/>
    </g>
    <g transform="matrix(1.33748,0,0,0.762548,63.9982,173.685)">
        <rect x="-47.85" y="285.72" width="84.916" height="95.641" style="fill:white;"/>
    </g>
    <g transform="matrix(2.04874,0,0,0.762548,212.178,322.619)">
        <rect x="-47.85" y="285.72" width="84.916" height="95.641" style="fill:white;"/>
    </g>
    <g transform="matrix(3.04558,0,0,0.762548,297.487,357.698)">
        <rect x="-47.85" y="285.72" width="84.916" height="95.641" style="fill:white;"/>
    </g>
    <g transform="matrix(3.458,0,0,0.40626,541.701,127.4)">
        <rect x="-47.85" y="285.72" width="84.916" height="95.641" style="fill:white;"/>
    </g>
    <g transform="matrix(2.54605,0,0,1.73608,652.627,-457.213)">
        <rect x="-47.85" y="285.72" width="84.916" height="95.641" style="fill:white;"/>
    </g>
    <g transform="matrix(0.415916,0,0,1.75941,431.153,-502.697)">
        <rect x="-47.85" y="285.72" width="84.916" height="95.641" style="fill:white;"/>
    </g>
    <g transform="matrix(2.60801,0,0,1.75941,611.099,-502.697)">
        <rect x="-47.85" y="285.72" width="84.916" height="95.641" style="fill:white;"/>
    </g>
</svg>
